# xmcd
# 
# Track frame offsets:
#     150
#     8625
#     12010
#     14805
#     18910
#     21097
#     23880
#     26442
#     31545
#     34957
#     37800
#     41012
#     45102
#     49292
#     59082
#     63495
#     73737
#     79535
#     83515
#     86975
#     90170
#     93732
#     101412
#     104575
#     108657
#     112920
#     142032
#     145942
#     149660
#     154967
#     159482
#     163085
# 
# Disc length: 2306
# 
# Revision: 31
# Processed by: cddbd v1.5.2PL0 Copyright (c) Steve Scherf et al.
# Submitted via: fre:ac v1.0.31
# 
DISCID=a0090020
DTITLE=Johann Sebastian Bach - The Complete Goldberg Variations (BWV 988, 1955 Recording, Disc01)
DYEAR=1955
DGENRE=Classical
TTITLE0=Aria
TTITLE1=Variation 1
TTITLE2=Variation 2
TTITLE3=Variation 3
TTITLE4=Variation 4
TTITLE5=Variation 5
TTITLE6=Variation 6
TTITLE7=Variation 7
TTITLE8=Variation 8
TTITLE9=Variation 9
TTITLE10=Variation 10
TTITLE11=Variation 11
TTITLE12=Variation 12
TTITLE13=Variation 13
TTITLE14=Variation 14
TTITLE15=Variation 15
TTITLE16=Variation 16
TTITLE17=Variation 17
TTITLE18=Variation 18
TTITLE19=Variation 19
TTITLE20=Variation 20
TTITLE21=Variation 21
TTITLE22=Variation 22
TTITLE23=Variation 23
TTITLE24=Variation 24
TTITLE25=Variation 25
TTITLE26=Variation 26
TTITLE27=Variation 27
TTITLE28=Variation 28
TTITLE29=Variation 29
TTITLE30=Variation 30
TTITLE31=Aria (Reprise)
EXTD=
EXTT0=
EXTT1=
EXTT2=
EXTT3=
EXTT4=
EXTT5=
EXTT6=
EXTT7=
EXTT8=
EXTT9=
EXTT10=
EXTT11=
EXTT12=
EXTT13=
EXTT14=
EXTT15=
EXTT16=
EXTT17=
EXTT18=
EXTT19=
EXTT20=
EXTT21=
EXTT22=
EXTT23=
EXTT24=
EXTT25=
EXTT26=
EXTT27=
EXTT28=
EXTT29=
EXTT30=
EXTT31=
PLAYORDER=
